<svg id="Layer_1" data-name="Layer 1" xmlns="http://www.w3.org/2000/svg" xmlns:xlink="http://www.w3.org/1999/xlink" viewBox="0 0 640 799.22"><defs><clipPath id="clip-path" transform="translate(15.12 104.77)"><rect x="-15" y="54.45" width="640.88" height="640" style="fill:none"/></clipPath></defs><title>00type</title><g style="clip-path:url(#clip-path)"><path d="M618.48,374.45h-44.8a6.42,6.42,0,0,0-6.4,6.4v256H42.48V112.06h256a6.42,6.42,0,0,0,6.4-6.4V60.85a6.42,6.42,0,0,0-6.4-6.4h-288a25.57,25.57,0,0,0-25.6,25.6v588.8a25.57,25.57,0,0,0,25.6,25.6h588.8a25.57,25.57,0,0,0,25.6-25.6v-288a6.42,6.42,0,0,0-6.4-6.4Zm0,0" transform="translate(15.12 104.77)"/></g><text transform="translate(349.47 452.63)" style="font-size:514.9871215820312px;font-family:Thonburi, Thonburi">t</text></svg>
