<svg id="Layer_1" data-name="Layer 1" xmlns="http://www.w3.org/2000/svg" viewBox="0 0 564.83 716.8"><title>01resources</title><path d="M539.23,0h-512A25.57,25.57,0,0,0,1.63,25.6V691.2a25.58,25.58,0,0,0,25.6,25.6h512a25.57,25.57,0,0,0,25.6-25.6V25.6A25.57,25.57,0,0,0,539.23,0Zm-32,659.2h-448V57.6h448Zm0,0"/><path d="M401.39,337.2a25,25,0,0,0,4.07-13.81,25.84,25.84,0,1,0-45.19,17l-33.81,62a35.25,35.25,0,0,0-29.51,4.49l-27.08-32.49A21.89,21.89,0,0,0,272.55,364,22.15,22.15,0,1,0,259,384.41l27.28,32.73A37,37,0,1,0,339.63,409l33.17-60.81a25.64,25.64,0,0,0,6.81,1A25,25,0,0,0,390.13,347,25.86,25.86,0,0,0,401.39,337.2ZM316.85,460A22.15,22.15,0,1,1,339,437.84,22.18,22.18,0,0,1,316.85,460Zm0,0"/><path d="M346.35,459.35l58.57,13.32a21.93,21.93,0,0,0,5.48,10.48,22.15,22.15,0,1,0,.82-31.32h0a22.1,22.1,0,0,0-4.45,6.12l-59-13.42"/><path d="M283.37,444.53,229,470.08a21.93,21.93,0,0,0-10.77-4.88,22.15,22.15,0,1,0,18.63,25.19h0a22.1,22.1,0,0,0-.26-7.56l54.74-25.72"/><path d="M313.58,473.45l8.07,70.18a26.69,26.69,0,0,0-9.31,10.47c-6.43,13-1.43,28.64,11.18,34.86s28,.71,34.48-12.32,1.43-28.64-11.18-34.86h0a24.67,24.67,0,0,0-8.39-2.32L330.3,468.8"/></svg>