<?xml version="1.0" encoding="utf-8"?>
<!-- Generator: Adobe Illustrator 21.0.0, SVG Export Plug-In . SVG Version: 6.00 Build 0)  -->
<svg version="1.1" id="Layer_1" xmlns="http://www.w3.org/2000/svg" xmlns:xlink="http://www.w3.org/1999/xlink" x="0px" y="0px"
	 viewBox="0 0 564.8 716.8" style="enable-background:new 0 0 564.8 716.8;" xml:space="preserve">
<path d="M539.2,0h-512C13.1,0,1.6,11.4,1.6,25.6v665.6c0,14.2,11.4,25.6,25.6,25.6h512c14.2,0,25.6-11.4,25.6-25.6V25.6
	C564.8,11.4,553.4,0,539.2,0L539.2,0z M507.2,659.2h-448V57.6h448V659.2z M507.2,659.2"/>
<path d="M134.6,175.4c0,12.9,10.5,23.4,23.4,23.4c12.9,0,23.4-10.5,23.4-23.4c0-12.9-10.5-23.4-23.4-23.4
	C145.1,152,134.6,162.5,134.6,175.4L134.6,175.4z M134.6,175.4"/>
<path d="M429,406.9H222.4c-1.6,0-2.8,1.3-2.8,2.8v19.8c0,1.6,1.3,2.8,2.8,2.8H429c1.6,0,2.8-1.3,2.8-2.8v-19.8
	C431.8,408.2,430.6,406.9,429,406.9L429,406.9z"/>
<path d="M428.1,162.7H221.5c-1.6,0-2.8,1.3-2.8,2.8v19.8c0,1.6,1.3,2.8,2.8,2.8h206.6c1.6,0,2.8-1.3,2.8-2.8v-19.8
	C430.9,163.9,429.6,162.7,428.1,162.7L428.1,162.7z"/>
<path d="M429,285.2H222.4c-1.6,0-2.8,1.3-2.8,2.8v19.8c0,1.6,1.3,2.8,2.8,2.8H429c1.6,0,2.8-1.3,2.8-2.8V288
	C431.8,286.5,430.6,285.2,429,285.2L429,285.2z"/>
<path d="M134.6,297.9c0,12.9,10.5,23.4,23.4,23.4c12.9,0,23.4-10.5,23.4-23.4c0-12.9-10.5-23.4-23.4-23.4
	C145.1,274.6,134.6,285,134.6,297.9L134.6,297.9z M134.6,297.9"/>
<path d="M134.6,419.7c0,12.9,10.5,23.4,23.4,23.4c12.9,0,23.4-10.5,23.4-23.4c0-12.9-10.5-23.4-23.4-23.4
	C145.1,396.3,134.6,406.8,134.6,419.7L134.6,419.7z M134.6,419.7"/>
<path d="M428.1,528.7H221.5c-1.6,0-2.8,1.3-2.8,2.8v19.8c0,1.6,1.3,2.8,2.8,2.8h206.6c1.6,0,2.8-1.3,2.8-2.8v-19.8
	C430.9,529.9,429.6,528.7,428.1,528.7L428.1,528.7z"/>
<path d="M134.6,541.4c0,12.9,10.5,23.4,23.4,23.4c12.9,0,23.4-10.5,23.4-23.4c0-12.9-10.5-23.4-23.4-23.4
	C145.1,518,134.6,528.5,134.6,541.4L134.6,541.4z M134.6,541.4"/>
</svg>
