<svg id="Layer_1" data-name="Layer 1" xmlns="http://www.w3.org/2000/svg" xmlns:xlink="http://www.w3.org/1999/xlink" viewBox="0 0 291.32 242.76"><defs><clipPath id="clip-path"><rect x="0.06" y="3.12" width="233.81" height="239.15" transform="translate(-36.23 50.13) rotate(-21.02)" style="fill:none"/></clipPath></defs><title>00revision</title><path d="M162.47,87.17l-9.42,22.64a3.3,3.3,0,0,0,1.83,4.32l.08,0,22.84,8.43a1.71,1.71,0,0,0,1.21,0L290.32,74.72a1.65,1.65,0,0,0,.86-2.17L276.82,39.28a1.62,1.62,0,0,0-.92-.87,1.7,1.7,0,0,0-1.27,0L163.34,86.28a1.71,1.71,0,0,0-.87.9Zm10.37,9.36,96.43-41.45,5.23,12.09L178,108.64l-8.84-3.27Zm0,0"/><g style="clip-path:url(#clip-path)"><path d="M191.41,1.76,180.93,19.24A119.54,119.54,0,1,0,239,119.69a2.29,2.29,0,0,0-2.36-2.24l-17.06.61a2.27,2.27,0,0,0-2.19,2.31c0,1.51,0,3,0,4.56a97.93,97.93,0,1,1-47.52-87.21l-11.2,18.64a2.28,2.28,0,0,0,2.24,3.44l51.06-6.51a2.29,2.29,0,0,0,1.84-3.06L195.5,2.08a2.29,2.29,0,0,0-4.09-.32Zm0,0"/></g><path d="M95.95,152.28H57A1.69,1.69,0,0,0,55.36,154v10.11A1.69,1.69,0,0,0,57,165.77h38.9a1.69,1.69,0,0,0,1.69-1.69V154a1.69,1.69,0,0,0-1.69-1.69Z"/><path d="M55.36,125.32v10.11A1.69,1.69,0,0,0,57,137.12h81.18a1.69,1.69,0,0,0,1.69-1.69V125.32a1.69,1.69,0,0,0-1.69-1.69H57a1.69,1.69,0,0,0-1.69,1.69Z"/><path d="M55.36,96.66v10.11A1.69,1.69,0,0,0,57,108.46h81.18a1.69,1.69,0,0,0,1.69-1.69V96.66A1.69,1.69,0,0,0,138.23,95H57a1.69,1.69,0,0,0-1.69,1.69Z"/></svg>
