<svg id="Layer_1" data-name="Layer 1" xmlns="http://www.w3.org/2000/svg" xmlns:xlink="http://www.w3.org/1999/xlink" viewBox="0 0 716.8 563.2"><defs><clipPath id="clip-path"><rect x="170.25" y="217.23" width="105.13" height="101.33" transform="translate(-84.58 103.81) rotate(-22.16)" style="fill:none"/></clipPath><clipPath id="clip-path-2"><rect x="456.41" y="86.6" width="105.13" height="101.33" transform="translate(-14.19 202.08) rotate(-22.16)" style="fill:none"/></clipPath><clipPath id="clip-path-3"><rect x="312.43" y="340.3" width="105.13" height="101.33" transform="translate(-120.49 166.51) rotate(-22.16)" style="fill:none"/></clipPath></defs><title>Schema</title><path d="M691.2,0H25.6A25.57,25.57,0,0,0,0,25.6v512a25.57,25.57,0,0,0,25.6,25.6H691.2a25.57,25.57,0,0,0,25.6-25.6V25.6A25.58,25.58,0,0,0,691.2,0Zm-32,505-601.6.6V57.6H659.2ZM57.6,57.6m0,448"/><path d="M321.59,311.55V224.72h86.82v86.82Zm96.22,5.52V218.72a3.4,3.4,0,0,0-3.39-3.39H316.06a3.4,3.4,0,0,0-3.39,3.39v98.35a3.4,3.4,0,0,0,3.39,3.39h98.35m0,0a3.4,3.4,0,0,0,3.39-3.39"/><g style="clip-path:url(#clip-path)"><path d="M213.92,326.07a3.75,3.75,0,0,1-5.08-2.66l-7-31.71-29.86-12.32a3.75,3.75,0,0,1-.47-6.7l27.66-16.3L201.31,224a3.91,3.91,0,0,1,6.25-2.54l24.14,21.6,31.18-7.66a3.75,3.75,0,0,1,4.34,5.13l-12.76,29.68,16.72,27a3.75,3.75,0,0,1-1.32,6.05l-.07,0a3.77,3.77,0,0,1-1.8.26l-32-3.27L215.39,325a3.77,3.77,0,0,1-1.47,1.07Zm-32.15-50.76,24.7,10.2a3.76,3.76,0,0,1,2.23,2.65l5.82,26.17,17-20.36a3.75,3.75,0,0,1,3.26-1.33l26.39,2.7-14.12-22.79a3.75,3.75,0,0,1-.26-3.46l10.55-24.55-25.78,6.33a3.75,3.75,0,0,1-3.4-.85l-19.89-17.8-1.8,26.63a3.75,3.75,0,0,1-1.84,3Zm0,0"/></g><path d="M541.15,299.85A44.06,44.06,0,1,1,554,268.71a43.76,43.76,0,0,1-12.89,31.14Zm-31.34-83.62A52.16,52.16,0,1,0,562,268.4a52.16,52.16,0,0,0-52.16-52.16Zm26,78.13"/><path d="M177.73,184.89V98.07h86.82v86.82Zm96.22,5.52V92.07a3.4,3.4,0,0,0-3.39-3.39H172.2a3.4,3.4,0,0,0-3.39,3.39v98.35a3.4,3.4,0,0,0,3.39,3.39h98.35m0,0a3.4,3.4,0,0,0,3.39-3.39"/><g style="clip-path:url(#clip-path-2)"><path d="M500.08,195.44a3.75,3.75,0,0,1-5.08-2.66l-7-31.71L458.1,148.74a3.75,3.75,0,0,1-.47-6.7l27.66-16.3,2.18-32.33a3.91,3.91,0,0,1,6.25-2.54l24.14,21.6L549,104.82a3.75,3.75,0,0,1,4.34,5.13l-12.76,29.68,16.72,27a3.75,3.75,0,0,1-1.32,6.05l-.07,0a3.77,3.77,0,0,1-1.8.26l-32-3.27-20.61,24.69a3.77,3.77,0,0,1-1.47,1.07Zm-32.15-50.76,24.7,10.2a3.76,3.76,0,0,1,2.23,2.65l5.82,26.17,17-20.36a3.75,3.75,0,0,1,3.26-1.33l26.39,2.7-14.12-22.79a3.75,3.75,0,0,1-.26-3.46l10.55-24.55-25.78,6.33a3.75,3.75,0,0,1-3.4-.85l-19.89-17.8-1.8,26.63a3.75,3.75,0,0,1-1.84,3Zm0,0"/></g><path d="M396.57,172.7a44.06,44.06,0,1,1,12.89-31.14,43.76,43.76,0,0,1-12.89,31.14ZM365.24,89.08a52.16,52.16,0,1,0,52.16,52.16,52.16,52.16,0,0,0-52.16-52.16Zm26,78.13"/><path d="M465.56,438.93V352.11h86.82v86.82Zm96.22,5.52V346.11a3.4,3.4,0,0,0-3.39-3.39H460a3.4,3.4,0,0,0-3.39,3.39v98.35a3.4,3.4,0,0,0,3.39,3.39h98.35m0,0a3.4,3.4,0,0,0,3.39-3.39"/><g style="clip-path:url(#clip-path-3)"><path d="M356.11,449.14a3.75,3.75,0,0,1-5.08-2.66l-7-31.71-29.86-12.32a3.75,3.75,0,0,1-.47-6.7l27.66-16.3,2.18-32.33a3.91,3.91,0,0,1,6.25-2.54l24.14,21.6,31.18-7.66a3.75,3.75,0,0,1,4.34,5.13l-12.76,29.68,16.72,27a3.75,3.75,0,0,1-1.32,6.05l-.07,0a3.77,3.77,0,0,1-1.8.26l-32-3.27-20.61,24.69a3.77,3.77,0,0,1-1.47,1.07ZM324,398.38l24.7,10.2a3.76,3.76,0,0,1,2.23,2.65l5.82,26.17,17-20.36a3.75,3.75,0,0,1,3.26-1.33l26.39,2.7-14.12-22.79a3.75,3.75,0,0,1-.26-3.46l10.55-24.55-25.78,6.33a3.75,3.75,0,0,1-3.4-.85l-19.89-17.8-1.8,26.63a3.75,3.75,0,0,1-1.84,3Zm0,0"/></g><path d="M252.72,425.6a44.06,44.06,0,1,1,12.89-31.14,43.76,43.76,0,0,1-12.89,31.14ZM221.38,342a52.16,52.16,0,1,0,52.16,52.16A52.16,52.16,0,0,0,221.38,342Zm26,78.13"/></svg>