<svg width="16" height="16" viewBox="0 0 16 16" fill="none" xmlns="http://www.w3.org/2000/svg">
<rect width="16" height="16" rx="3" fill="#0070C9"/>
<path fill-rule="evenodd" clip-rule="evenodd" d="M5.92617 9.04055C5.81023 9.04055 5.69429 8.99398 5.60179 8.90117L4.68648 7.99586C3.77117 7.07895 3.77117 5.59331 4.68648 4.68792C5.60179 3.77069 7.08471 3.77069 7.98842 4.68792L8.90373 5.60483C9.08904 5.79046 9.08904 6.08078 8.90373 6.26641C8.71841 6.45204 8.42871 6.45204 8.2434 6.26641L7.32809 5.3495C7.06152 5.08231 6.70244 4.93167 6.3315 4.93167C5.9493 4.93167 5.60179 5.0823 5.33523 5.3495C4.77896 5.9067 4.77896 6.80018 5.33523 7.3458L6.25054 8.26271C6.43585 8.44865 6.43585 8.73866 6.25054 8.92429C6.16929 8.99398 6.0418 9.04055 5.92617 9.04055ZM9.65693 12.0003C9.05441 12.0003 8.46345 11.7681 8 11.3156L7.08469 10.3984C6.89937 10.2128 6.89937 9.92274 7.08469 9.7368C7.27001 9.55117 7.5597 9.55117 7.74502 9.7368L8.66033 10.654C9.21659 11.2109 10.1088 11.2109 10.6532 10.654C11.2095 10.0968 11.2095 9.20302 10.6532 8.65741L9.73788 7.7405C9.55256 7.55487 9.55256 7.26455 9.73788 7.07892C9.9232 6.89329 10.2129 6.89329 10.3982 7.07892L11.3135 7.99583C12.2288 8.91274 12.2288 10.3984 11.3135 11.3041C10.8501 11.7682 10.2594 12.0003 9.65693 12.0003ZM8.41721 9.06367C8.50971 9.15649 8.62565 9.20305 8.74159 9.20305C8.8691 9.20305 8.98473 9.15648 9.07754 9.07523C9.26286 8.8896 9.26286 8.59928 9.07754 8.41365L7.58278 6.9164C7.39746 6.73077 7.10776 6.73077 6.92244 6.9164C6.73713 7.10203 6.73713 7.39235 6.92244 7.57798L8.41721 9.06367Z" fill="white"/>
</svg>
