<svg xmlns="http://www.w3.org/2000/svg" width="15" height="11.998" viewBox="0 0 15 11.998">
  <path id="Icon_awesome-code" data-name="Icon awesome-code" d="M6.535,11.989l-1.43-.415a.282.282,0,0,1-.192-.349L8.112.206A.282.282,0,0,1,8.461.013l1.43.415a.282.282,0,0,1,.192.349L6.884,11.8a.281.281,0,0,1-.349.192ZM3.863,9.36,4.883,8.272a.281.281,0,0,0-.019-.4L2.741,6,4.864,4.133a.279.279,0,0,0,.019-.4L3.863,2.643a.282.282,0,0,0-.4-.012L.088,5.8a.279.279,0,0,0,0,.41L3.465,9.371a.279.279,0,0,0,.4-.012Zm7.668.014,3.377-3.166a.279.279,0,0,0,0-.41L11.532,2.629a.284.284,0,0,0-.4.012L10.114,3.728a.281.281,0,0,0,.019.4L12.256,6,10.132,7.869a.279.279,0,0,0-.019.4L11.133,9.36a.282.282,0,0,0,.4.014Z" transform="translate(0.002 -0.003)" fill="#cfcfcf"/>
</svg>
