<svg xmlns="http://www.w3.org/2000/svg" width="16" height="18" viewBox="0 0 68.214 77.959">
  <path id="Icon_awesome-copy" data-name="Icon awesome-copy" d="M48.724,68.214V74.3a3.654,3.654,0,0,1-3.654,3.654H3.654A3.654,3.654,0,0,1,0,74.3V18.272a3.654,3.654,0,0,1,3.654-3.654H14.617v45.07a8.536,8.536,0,0,0,8.527,8.527Zm0-52.379V0H23.144A3.654,3.654,0,0,0,19.49,3.654V59.687a3.654,3.654,0,0,0,3.654,3.654H64.56a3.654,3.654,0,0,0,3.654-3.654V19.49H52.379A3.665,3.665,0,0,1,48.724,15.835Zm18.419-4.725L57.1,1.07A3.654,3.654,0,0,0,54.519,0H53.6V14.617H68.214v-.923a3.654,3.654,0,0,0-1.07-2.584Z" fill="#FFFFFF"/>
</svg>
