<svg width="338" height="27" viewBox="0 0 338 27" fill="none" xmlns="http://www.w3.org/2000/svg">
<g clip-path="url(#clip0_1_2)">
<path d="M0 8.55849H4.625V3.88302H15.5384V0H0V8.55849Z" fill="#FF0000"/>
<path d="M0 21H15.5384V17.117H4.625V12.4415H0V21Z" fill="#FF0000"/>
<path d="M14.6052 8.55847L4.625 8.55848V12.4415H14.6052V8.55847Z" fill="#FF0000"/>
<path d="M34.8904 1.94151C34.2818 1.34717 33.511 0.91132 32.5779 0.554717C31.6448 0.15849 30.4682 0 29.1294 0H19.5143V21H24.1393V12.4415H29.0889C30.4277 12.4415 31.5636 12.283 32.5373 11.9264C33.4704 11.5698 34.2413 11.0943 34.8498 10.5396C35.4584 9.94528 35.8641 9.31132 36.1481 8.55849C36.4321 7.80566 36.5538 7.05283 36.5538 6.26037C36.5538 5.46792 36.4321 4.67547 36.1481 3.96226C35.9046 3.16981 35.4584 2.49623 34.8904 1.94151ZM31.6448 7.40943C31.4014 7.72641 31.1174 7.96415 30.7117 8.12264C30.3465 8.28113 29.9003 8.4 29.3728 8.47924C28.886 8.51886 28.3586 8.55849 27.7906 8.55849H24.0987V3.88302H27.7906C28.318 3.88302 28.8454 3.92264 29.3728 3.96226C29.8597 4.00189 30.306 4.12075 30.7117 4.31887C31.0768 4.47736 31.4014 4.71509 31.6448 5.03207C31.8882 5.34905 32.0099 5.74528 32.0099 6.22075C32.0099 6.69622 31.8882 7.13207 31.6448 7.40943Z" fill="#FF0000"/>
<path d="M63.0866 17.117V0H58.4211V21H74V17.117H63.0866Z" fill="#FF0000"/>
<path d="M39.5153 8.55849H44.1809V3.88302H55.0943V0H39.5153V8.55849Z" fill="#FF0000"/>
<path d="M44.1403 12.4415H39.5153V21H44.1403V12.4415Z" fill="#FF0000"/>
<path d="M54.1611 8.55847L44.1809 8.55848V12.4415H54.1611V8.55847Z" fill="#FF0000"/>
<path d="M337.427 17.9719V20.9626L335.531 21.0328C333.64 21.0983 332.349 20.7707 331.656 20.0499C331.207 19.5913 330.982 18.8846 330.982 17.9298V8.50858H328.848V5.65835H330.982V1.39001H334.942V5.65835H337.427V8.50858H334.942V16.5959C334.942 17.2231 335.021 17.6162 335.18 17.7754C335.339 17.9251 335.826 18 336.64 18C336.762 18 336.888 18 337.02 18C337.16 17.9906 337.296 17.9813 337.427 17.9719Z" fill="#40A9FF"/>
<path d="M327.367 11.0078H323.267C323.192 10.4368 323 9.922 322.691 9.46335C322.242 8.84556 321.544 8.53667 320.599 8.53667C319.251 8.53667 318.329 9.20594 317.833 10.5445C317.571 11.2559 317.44 12.2013 317.44 13.3807C317.44 14.5039 317.571 15.4072 317.833 16.0905C318.31 17.3635 319.209 18 320.529 18C321.465 18 322.129 17.7473 322.523 17.2418C322.916 16.7364 323.154 16.0811 323.239 15.2761H327.325C327.231 16.493 326.791 17.6443 326.005 18.7301C324.75 20.4805 322.892 21.3557 320.431 21.3557C317.969 21.3557 316.158 20.6256 314.997 19.1654C313.836 17.7052 313.256 15.8097 313.256 13.4789C313.256 10.8487 313.897 8.80344 315.179 7.34322C316.462 5.883 318.231 5.15289 320.487 5.15289C322.406 5.15289 323.973 5.58347 325.19 6.44462C326.417 7.30578 327.142 8.82684 327.367 11.0078Z" fill="#40A9FF"/>
<path d="M310.933 16.3291C310.83 17.2371 310.357 18.1591 309.514 19.0951C308.204 20.5834 306.369 21.3276 304.011 21.3276C302.064 21.3276 300.346 20.7004 298.858 19.4461C297.369 18.1918 296.625 16.1513 296.625 13.3244C296.625 10.6755 297.295 8.64426 298.633 7.23084C299.981 5.81743 301.727 5.11072 303.87 5.11072C305.143 5.11072 306.29 5.34941 307.31 5.82679C308.33 6.30417 309.173 7.05768 309.837 8.08732C310.436 8.99527 310.825 10.0483 311.003 11.2464C311.106 11.9485 311.148 12.9594 311.129 14.2792H300.655C300.711 15.8143 301.193 16.8907 302.101 17.5085C302.653 17.8923 303.318 18.0842 304.095 18.0842C304.919 18.0842 305.588 17.8502 306.103 17.3822C306.383 17.1294 306.631 16.7784 306.847 16.3291H310.933ZM306.973 11.6396C306.908 10.5819 306.585 9.78154 306.004 9.23864C305.433 8.68638 304.722 8.41025 303.87 8.41025C302.943 8.41025 302.223 8.70042 301.708 9.28076C301.202 9.86111 300.884 10.6474 300.753 11.6396H306.973Z" fill="#40A9FF"/>
<path d="M289.725 5.58814H293.726V22.4649C293.726 24.0094 293.422 25.1513 292.814 25.8908C292.205 26.6303 291.012 27 289.233 27C289.112 27 288.929 26.9953 288.686 26.986C288.452 26.9766 288.157 26.9672 287.801 26.9579V23.7566C288.026 23.7754 288.185 23.7847 288.279 23.7847C288.372 23.7941 288.456 23.7988 288.531 23.7988C288.925 23.7988 289.219 23.7005 289.416 23.5039C289.622 23.3167 289.725 22.947 289.725 22.3947V5.58814ZM289.725 0H293.726V3.69267H289.725V0Z" fill="#40A9FF"/>
<path d="M284.439 7.45551C285.73 9.07485 286.376 10.989 286.376 13.1981C286.376 15.4446 285.73 17.3681 284.439 18.9688C283.147 20.56 281.186 21.3557 278.556 21.3557C275.925 21.3557 273.964 20.56 272.673 18.9688C271.381 17.3681 270.735 15.4446 270.735 13.1981C270.735 10.989 271.381 9.07485 272.673 7.45551C273.964 5.83616 275.925 5.02649 278.556 5.02649C281.186 5.02649 283.147 5.83616 284.439 7.45551ZM278.542 8.41026C277.372 8.41026 276.468 8.8268 275.832 9.65987C275.205 10.4836 274.891 11.663 274.891 13.1981C274.891 14.7332 275.205 15.9173 275.832 16.7504C276.468 17.5834 277.372 18 278.542 18C279.712 18 280.61 17.5834 281.237 16.7504C281.865 15.9173 282.178 14.7332 282.178 13.1981C282.178 11.663 281.865 10.4836 281.237 9.65987C280.61 8.8268 279.712 8.41026 278.542 8.41026Z" fill="#40A9FF"/>
<path d="M267.878 9.21062C266.268 9.21062 265.187 9.7348 264.635 10.7832C264.326 11.3729 264.171 12.2808 264.171 13.507V20.8222H260.142V5.51795H263.961V8.18565C264.578 7.16537 265.117 6.46803 265.575 6.09361C266.324 5.46647 267.298 5.15289 268.496 5.15289C268.571 5.15289 268.631 5.15757 268.678 5.16693C268.734 5.16693 268.851 5.17161 269.029 5.18097V9.28082C268.777 9.25274 268.552 9.23402 268.355 9.22466C268.159 9.2153 268 9.21062 267.878 9.21062Z" fill="#40A9FF"/>
<path d="M249.829 13.3806H245.434V20.8221H241.138V0.126343H250.152C252.23 0.126343 253.887 0.659884 255.122 1.72697C256.358 2.79405 256.976 4.44616 256.976 6.68329C256.976 9.12634 256.358 10.8533 255.122 11.8643C253.887 12.8752 252.122 13.3806 249.829 13.3806ZM251.851 9.07018C252.413 8.57408 252.693 7.78781 252.693 6.71137C252.693 5.63492 252.408 4.86737 251.837 4.40871C251.275 3.95006 250.484 3.72073 249.464 3.72073H245.434V9.81433H249.464C250.484 9.81433 251.28 9.56628 251.851 9.07018Z" fill="#40A9FF"/>
<path d="M221.763 8.48051C220.406 8.48051 219.474 9.05617 218.969 10.2075C218.707 10.8159 218.576 11.5928 218.576 12.5382V20.8222H214.588V5.54603H218.449V7.77848C218.964 6.99221 219.451 6.4259 219.91 6.07957C220.733 5.46179 221.777 5.15289 223.041 5.15289C224.622 5.15289 225.914 5.56943 226.916 6.4025C227.927 7.22622 228.432 8.59751 228.432 10.5164V20.8222H224.332V11.5133C224.332 10.7083 224.225 10.0905 224.009 9.65991C223.616 8.87364 222.867 8.48051 221.763 8.48051Z" fill="#40A9FF"/>
<path d="M210.383 5.51794V20.8222H206.325V5.51794H210.383ZM210.383 0V3.69267H206.325V0H210.383Z" fill="#40A9FF"/>
<path d="M190.551 7.17473C191.609 5.82684 193.425 5.15289 195.999 5.15289C197.674 5.15289 199.163 5.48519 200.464 6.14977C201.765 6.81436 202.415 8.06865 202.415 9.91264V16.9329C202.415 17.4197 202.425 18.0094 202.444 18.702C202.472 19.2262 202.551 19.5819 202.682 19.7691C202.813 19.9563 203.01 20.1108 203.272 20.2325V20.8222H198.919C198.798 20.5133 198.713 20.2231 198.667 19.9516C198.62 19.6802 198.582 19.3713 198.554 19.025C198.002 19.624 197.366 20.1342 196.645 20.5554C195.784 21.0515 194.81 21.2995 193.724 21.2995C192.339 21.2995 191.192 20.9064 190.284 20.1201C189.386 19.3245 188.937 18.2013 188.937 16.7504C188.937 14.869 189.662 13.507 191.113 12.6646C191.908 12.2059 193.078 11.8783 194.623 11.6818L195.985 11.5133C196.724 11.4197 197.253 11.3027 197.571 11.1623C198.142 10.9189 198.428 10.5398 198.428 10.025C198.428 9.39782 198.208 8.96725 197.768 8.73324C197.337 8.48987 196.701 8.36818 195.859 8.36818C194.913 8.36818 194.244 8.60219 193.851 9.07021C193.57 9.41654 193.383 9.88456 193.289 10.4743H189.428C189.512 9.13573 189.887 8.03589 190.551 7.17473ZM193.528 17.9298C193.902 18.2387 194.361 18.3931 194.904 18.3931C195.765 18.3931 196.556 18.1404 197.277 17.635C198.007 17.1295 198.386 16.2075 198.414 14.869V13.3807C198.161 13.5398 197.904 13.6708 197.642 13.7738C197.389 13.8674 197.038 13.9563 196.589 14.0406L195.69 14.2091C194.848 14.3588 194.244 14.5413 193.879 14.7566C193.261 15.1217 192.952 15.688 192.952 16.4555C192.952 17.1389 193.144 17.6303 193.528 17.9298Z" fill="#40A9FF"/>
<path d="M186.178 9.21062C184.568 9.21062 183.487 9.7348 182.935 10.7832C182.626 11.3729 182.471 12.2808 182.471 13.507V20.8222H178.442V5.51795H182.261V8.18565C182.878 7.16537 183.417 6.46803 183.875 6.09361C184.624 5.46647 185.598 5.15289 186.796 5.15289C186.871 5.15289 186.932 5.15757 186.978 5.16693C187.034 5.16693 187.151 5.17161 187.329 5.18097V9.28082C187.077 9.25274 186.852 9.23402 186.655 9.22466C186.459 9.2153 186.3 9.21062 186.178 9.21062Z" fill="#40A9FF"/>
<path d="M167.188 20.8221H157.809V0.126343H167.862C170.399 0.163784 172.196 0.898574 173.253 2.33071C173.89 3.21059 174.208 4.26363 174.208 5.48984C174.208 6.75349 173.89 7.76909 173.253 8.53664C172.898 8.96722 172.374 9.36035 171.681 9.71605C172.739 10.0998 173.534 10.7082 174.068 11.5413C174.611 12.3744 174.882 13.3853 174.882 14.5741C174.882 15.8003 174.573 16.9001 173.955 17.8736C173.562 18.5195 173.071 19.0624 172.481 19.5023C171.817 20.0078 171.03 20.3541 170.122 20.5413C169.224 20.7285 168.246 20.8221 167.188 20.8221ZM167.09 11.7098H161.937V17.2277H167.019C167.927 17.2277 168.634 17.1061 169.14 16.8627C170.057 16.4134 170.516 15.5522 170.516 14.2792C170.516 13.2028 170.071 12.4633 169.182 12.0608C168.686 11.8362 167.988 11.7192 167.09 11.7098ZM169.238 7.76441C169.799 7.42744 170.08 6.82369 170.08 5.95318C170.08 4.98906 169.706 4.35255 168.957 4.04366C168.311 3.82837 167.487 3.72073 166.486 3.72073H161.937V8.28391H167.019C167.927 8.28391 168.667 8.11074 169.238 7.76441Z" fill="#40A9FF"/>
<path d="M145.931 16.3291C145.828 17.2371 145.356 18.1591 144.513 19.0951C143.203 20.5834 141.368 21.3276 139.009 21.3276C137.062 21.3276 135.345 20.7004 133.856 19.4461C132.368 18.1918 131.624 16.1513 131.624 13.3244C131.624 10.6755 132.293 8.64426 133.632 7.23084C134.98 5.81743 136.725 5.11072 138.869 5.11072C140.142 5.11072 141.289 5.34941 142.309 5.82679C143.329 6.30417 144.172 7.05768 144.836 8.08732C145.435 8.99527 145.824 10.0483 146.002 11.2464C146.105 11.9485 146.147 12.9594 146.128 14.2792H135.654C135.71 15.8143 136.192 16.8907 137.1 17.5085C137.652 17.8923 138.317 18.0842 139.094 18.0842C139.917 18.0842 140.587 17.8502 141.101 17.3822C141.382 17.1294 141.63 16.7784 141.846 16.3291H145.931ZM141.972 11.6396C141.906 10.5819 141.583 9.78154 141.003 9.23864C140.432 8.68638 139.721 8.41025 138.869 8.41025C137.942 8.41025 137.222 8.70042 136.707 9.28076C136.201 9.86111 135.883 10.6474 135.752 11.6396H141.972Z" fill="#40A9FF"/>
<path d="M124.78 18.6599C124.742 18.7067 124.649 18.8471 124.499 19.0811C124.349 19.3151 124.171 19.5211 123.965 19.6989C123.338 20.2605 122.73 20.6443 122.14 20.8502C121.56 21.0562 120.876 21.1591 120.09 21.1591C117.825 21.1591 116.299 20.3448 115.513 18.7161C115.073 17.8175 114.853 16.493 114.853 14.7426V5.51794H118.953V14.7426C118.953 15.6131 119.056 16.2683 119.262 16.7083C119.627 17.4852 120.343 17.8736 121.41 17.8736C122.777 17.8736 123.713 17.3214 124.218 16.2169C124.48 15.6178 124.611 14.8268 124.611 13.844V5.51794H128.669V20.8222H124.78V18.6599Z" fill="#40A9FF"/>
<path d="M106.759 0.126343H110.76V20.8221H106.759V0.126343Z" fill="#40A9FF"/>
<path d="M95.3791 20.8221H86V0.126343H96.053C98.5897 0.163784 100.387 0.898574 101.445 2.33071C102.081 3.21059 102.399 4.26363 102.399 5.48984C102.399 6.75349 102.081 7.76909 101.445 8.53664C101.089 8.96722 100.565 9.36035 99.8721 9.71605C100.93 10.0998 101.725 10.7082 102.259 11.5413C102.802 12.3744 103.073 13.3853 103.073 14.5741C103.073 15.8003 102.764 16.9001 102.147 17.8736C101.754 18.5195 101.262 19.0624 100.672 19.5023C100.008 20.0078 99.2215 20.3541 98.3136 20.5413C97.415 20.7285 96.4368 20.8221 95.3791 20.8221ZM95.2808 11.7098H90.1279V17.2277H95.2106C96.1186 17.2277 96.8253 17.1061 97.3307 16.8627C98.248 16.4134 98.7067 15.5522 98.7067 14.2792C98.7067 13.2028 98.2621 12.4633 97.3729 12.0608C96.8768 11.8362 96.1794 11.7192 95.2808 11.7098ZM97.429 7.76441C97.9906 7.42744 98.2714 6.82369 98.2714 5.95318C98.2714 4.98906 97.897 4.35255 97.1482 4.04366C96.5023 3.82837 95.6786 3.72073 94.6771 3.72073H90.1279V8.28391H95.2106C96.1186 8.28391 96.858 8.11074 97.429 7.76441Z" fill="#40A9FF"/>
</g>
<defs>
<clipPath id="clip0_1_2">
<rect width="338" height="27" fill="white"/>
</clipPath>
</defs>
</svg>
