<svg xmlns="http://www.w3.org/2000/svg" width="16" height="16" viewBox="0 0 16 16">
  <path id="Icon_metro-flow-tree" data-name="Icon metro-flow-tree" d="M18.3,14.573V12.6a2.979,2.979,0,0,0-2.979-2.979h-1.7A1.277,1.277,0,0,1,12.347,8.34V6.362a2.043,2.043,0,1,0-1.7,0V8.34A1.277,1.277,0,0,1,9.368,9.617h-1.7A2.979,2.979,0,0,0,4.688,12.6v1.978a2.043,2.043,0,1,0,1.7,0V12.6a1.277,1.277,0,0,1,1.277-1.277h1.7a2.948,2.948,0,0,0,1.277-.3v3.552a2.043,2.043,0,1,0,1.7,0V11.021a2.948,2.948,0,0,0,1.277.3h1.7A1.277,1.277,0,0,1,16.6,12.6v1.978a2.043,2.043,0,1,0,1.7,0ZM11.5,3.332A1.179,1.179,0,1,1,10.318,4.51,1.178,1.178,0,0,1,11.5,3.332ZM5.539,17.6a1.179,1.179,0,1,1,1.178-1.179A1.179,1.179,0,0,1,5.539,17.6Zm5.957,0a1.179,1.179,0,1,1,1.178-1.179A1.179,1.179,0,0,1,11.5,17.6Zm5.957,0a1.179,1.179,0,1,1,1.178-1.179A1.179,1.179,0,0,1,17.454,17.6Z" transform="translate(-3.496 -2.468)" fill="#44c7f4"/>
</svg>
