<svg width="348" height="108" viewBox="0 0 348 108" fill="none" xmlns="http://www.w3.org/2000/svg">
<path d="M55.2607 56.7943L89.9571 7.45058e-08H65.4434L43.144 36.2561L55.2607 56.7943Z" fill="black"/>
<path d="M34.6963 51.1357L-3.03467e-05 107.93H24.5136L46.813 71.6739L34.6963 51.1357Z" fill="black"/>
<rect width="24.5136" height="108" fill="#44C7F4"/>
<rect x="65.4164" width="24.5136" height="108" fill="#1B75BB"/>
<path d="M0.0700684 0H24.5837L90 108H65.4864L0.0700684 0Z" fill="#00ADEE"/>
<path d="M126.32 83V28.2H160.32V35.96H135.2V54.44H156.08V62.2H135.2V83H126.32ZM190.692 43H199.332V83H190.692V80.52C186.799 82.76 183.199 83.88 179.892 83.88C174.399 83.88 170.719 82.4133 168.852 79.48C166.985 76.4933 166.052 71.2933 166.052 63.88V43H174.772V63.96C174.772 68.76 175.172 71.9867 175.972 73.64C176.772 75.2933 178.639 76.12 181.572 76.12C184.452 76.12 187.092 75.5867 189.492 74.52L190.692 74.04V43ZM237.649 51.24C231.356 50.3867 226.796 49.96 223.969 49.96C221.143 49.96 219.169 50.3067 218.049 51C216.983 51.64 216.449 52.68 216.449 54.12C216.449 55.56 217.036 56.5733 218.209 57.16C219.436 57.7467 222.263 58.44 226.689 59.24C231.169 59.9867 234.343 61.1867 236.209 62.84C238.076 64.4933 239.009 67.4267 239.009 71.64C239.009 75.8533 237.649 78.9467 234.929 80.92C232.263 82.8933 228.343 83.88 223.169 83.88C219.916 83.88 215.809 83.4267 210.849 82.52L208.369 82.12L208.689 74.84C215.089 75.6933 219.703 76.12 222.529 76.12C225.356 76.12 227.356 75.7733 228.529 75.08C229.756 74.3867 230.369 73.24 230.369 71.64C230.369 70.04 229.783 68.9467 228.609 68.36C227.489 67.72 224.743 67.0533 220.369 66.36C216.049 65.6133 212.876 64.4667 210.849 62.92C208.823 61.3733 207.809 58.5467 207.809 54.44C207.809 50.3333 209.196 47.2667 211.969 45.24C214.796 43.2133 218.396 42.2 222.769 42.2C226.183 42.2 230.369 42.6267 235.329 43.48L237.809 43.96L237.649 51.24ZM247.389 83V43H256.109V83H247.389ZM247.389 36.2V27H256.109V36.2H247.389ZM268.846 47.32C271.62 43.8533 276.206 42.12 282.606 42.12C289.006 42.12 293.566 43.8533 296.286 47.32C299.06 50.7867 300.446 55.9867 300.446 62.92C300.446 69.8533 299.113 75.08 296.446 78.6C293.78 82.12 289.166 83.88 282.606 83.88C276.046 83.88 271.433 82.12 268.766 78.6C266.1 75.08 264.766 69.8533 264.766 62.92C264.766 55.9867 266.126 50.7867 268.846 47.32ZM275.406 73.32C276.633 75.4533 279.033 76.52 282.606 76.52C286.18 76.52 288.58 75.4533 289.806 73.32C291.033 71.1867 291.646 67.6933 291.646 62.84C291.646 57.9867 290.98 54.5467 289.646 52.52C288.366 50.4933 286.02 49.48 282.606 49.48C279.193 49.48 276.82 50.4933 275.486 52.52C274.206 54.5467 273.566 57.9867 273.566 62.84C273.566 67.6933 274.18 71.1867 275.406 73.32ZM317.828 83H309.108V43H317.748V45.48C321.641 43.24 325.321 42.12 328.788 42.12C334.121 42.12 337.748 43.64 339.668 46.68C341.641 49.6667 342.628 54.6267 342.628 61.56V83H333.988V61.8C333.988 57.48 333.508 54.4133 332.548 52.6C331.641 50.7867 329.748 49.88 326.868 49.88C324.148 49.88 321.535 50.4133 319.028 51.48L317.828 51.96V83Z" fill="white"/>
</svg>
