<svg viewBox="-526,-340,1052,680" xmlns="http://www.w3.org/2000/svg" xmlns:xlink="http://www.w3.org/1999/xlink"><g stroke="#999" stroke-opacity="0.6"><line x1="-105.957329142682" y1="110.3904835993386" x2="-87.15998243980385" y2="131.22913061427934"/><line x1="-134.31824709207703" y1="-81.56347534674777" x2="-115.89420330996236" y2="-102.437468917666"/><line x1="-32.11785799896667" y1="116.5210990287491" x2="-56.988547722877705" y2="104.69859645094112"/><line x1="84.49150854128105" y1="6.712795488535161" x2="105.63882707338324" y2="24.924713246473132"/><line x1="-143.93398089488616" y1="52.8807382637087" x2="-126.27613426179694" y2="74.32219503401218"/><line x1="84.49150854128105" y1="6.712795488535161" x2="70.62024402141554" y2="30.673837451420614"/><line x1="79.7853589068618" y1="123.24759708314105" x2="101.07936247275836" y2="105.46647051807926"/><line x1="-36.57904832721577" y1="17.03194388705932" x2="-24.573568765868462" y2="42.26894596030303"/><line x1="-106.51650121786399" y1="-70.8749957894952" x2="-114.02860283720105" y2="-43.99472043039497"/><line x1="-68.02747584588789" y1="-138.01255061027751" x2="-47.628993233574846" y2="-119.26892726956801"/><line x1="-80.58708996850287" y1="46.57557625429488" x2="-55.738674604593086" y2="60.31429024443693"/><line x1="40.76808615524158" y1="131.94477873605166" x2="22.1178644693984" y2="152.48267359947639"/><line x1="-55.949823081756676" y1="-61.42646491965738" x2="-70.04689060507977" y2="-35.764199523632854"/><line x1="-68.02747584588789" y1="-138.01255061027751" x2="-89.82028797748465" y2="-120.82784392183261"/><line x1="41.05879732071183" y1="-43.17642783192315" x2="49.72524487083574" y2="-16.438831488969868"/><line x1="41.393842563765105" y1="-86.2455823133563" x2="15.19261092791352" y2="-94.97082201972984"/><line x1="-83.65419476081489" y1="-10.654682908799721" x2="-70.04689060507977" y2="-35.764199523632854"/><line x1="-94.46621363494822" y1="-19.842893906591335" x2="-66.73282115404419" y2="-14.434910938502622"/><line x1="139.87300983535167" y1="-23.304268580097077" x2="121.41581641967171" y2="-2.4380471179184116"/><line x1="57.71504716215927" y1="54.78587978695552" x2="34.77954595882935" y2="39.308949367229154"/><line x1="-5.505307479526664" y1="10.263571981623905" x2="22.344108762107094" y2="8.43817051944523"/><line x1="-60.47181713981269" y1="33.24665934827182" x2="-55.738674604593086" y2="60.31429024443693"/><line x1="18.423745303958675" y1="62.56368478982595" x2="34.77954595882935" y2="39.308949367229154"/><line x1="-21.552582529634822" y1="-39.90866683441745" x2="-30.107476310208963" y2="-13.55693992053612"/><line x1="22.344108762107094" y1="8.43817051944523" x2="18.456775587759047" y2="-19.233886960277143"/></g><g stroke="#fff" stroke-width="1.5"><circle r="5" cx="-115.89420330996236" cy="-102.437468917666"><title>1519</title></circle><circle r="5" cx="-68.02747584588789" cy="-138.01255061027751"><title>1549</title></circle><circle r="5" cx="41.393842563765105" cy="-86.2455823133563"><title>1655</title></circle><circle r="5" cx="-132.84868896591806" cy="-32.44566050093397"><title>1825</title></circle><circle r="5" cx="22.1178644693984" cy="152.48267359947639"><title>1716</title></circle><circle r="5" cx="70.62024402141554" cy="30.673837451420614"><title>1441</title></circle><circle r="5" cx="-105.957329142682" cy="110.3904835993386"><title>1650</title></circle><circle r="5" cx="-87.15998243980385" cy="131.22913061427934"><title>1668</title></circle><circle r="5" cx="40.76808615524158" cy="131.94477873605166"><title>1547</title></circle><circle r="5" cx="41.05879732071183" cy="-43.17642783192315"><title>1605</title></circle><circle r="5" cx="49.72524487083574" cy="-16.438831488969868"><title>1636</title></circle><circle r="5" cx="15.19261092791352" cy="-94.97082201972984"><title>1512</title></circle><circle r="5" cx="121.41581641967171" cy="-2.4380471179184116"><title>1489</title></circle><circle r="5" cx="35.883209113306584" cy="84.23405936920533"><title>1591</title></circle><circle r="5" cx="97.31567216097591" cy="52.71312022312923"><title>1857</title></circle><circle r="5" cx="127.73778827818836" cy="89.8204619256261"><title>1606</title></circle><circle r="5" cx="139.7760460085458" cy="15.965035667640166"><title>1840</title></circle><circle r="5" cx="-89.82028797748465" cy="-120.82784392183261"><title>1525</title></circle><circle r="5" cx="139.87300983535167" cy="-23.304268580097077"><title>1767</title></circle><circle r="5" cx="113.95376004006555" cy="70.07813275786032"><title>1516</title></circle><circle r="5" cx="67.2571572871374" cy="144.8218170405591"><title>1431</title></circle><circle r="5" cx="-154.86285439798596" cy="-7.506570319145778"><title>1545</title></circle><circle r="5" cx="-152.41290640961515" cy="-47.14631535706035"><title>1430</title></circle><circle r="5" cx="74.35103157887004" cy="74.91429951621272"><title>1911</title></circle><circle r="5" cx="-4.427083790852624" cy="119.46151404305786"><title>1695</title></circle><circle r="5" cx="-47.628993233574846" cy="-119.26892726956801"><title>1683</title></circle><circle r="5" cx="81.36713325653398" cy="-44.323284197466066"><title>1684</title></circle><circle r="5" cx="51.6152361863917" cy="-142.25125666141048"><title>1269</title></circle><circle r="5" cx="101.07936247275836" cy="105.46647051807926"><title>1521</title></circle><circle r="5" cx="-143.93398089488616" cy="52.8807382637087"><title>1656</title></circle><circle r="5" cx="-126.27613426179694" cy="74.32219503401218"><title>1682</title></circle><circle r="5" cx="-80.58708996850287" cy="46.57557625429488"><title>1671</title></circle><circle r="5" cx="20.74717545092282" cy="-150.58456094295528"><title>1551</title></circle><circle r="5" cx="144.67853919765557" cy="45.39419336228036"><title>1669</title></circle><circle r="5" cx="161.07082752736738" cy="0.36904749611628734"><title>1754</title></circle><circle r="5" cx="-56.988547722877705" cy="104.69859645094112"><title>1700</title></circle><circle r="5" cx="-55.738674604593086" cy="60.31429024443693"><title>1523</title></circle><circle r="5" cx="-76.05480929949833" cy="-93.3187974675807"><title>1537</title></circle><circle r="5" cx="-106.51650121786399" cy="-70.8749957894952"><title>1538</title></circle><circle r="5" cx="-32.78877941747587" cy="-149.50703087532926"><title>1526</title></circle><circle r="5" cx="-114.02860283720105" cy="-43.99472043039497"><title>1524</title></circle><circle r="5" cx="68.77196616080033" cy="-80.32979163086286"><title>1541</title></circle><circle r="5" cx="-32.11785799896667" cy="116.5210990287491"><title>1676</title></circle><circle r="5" cx="90.2833480184642" cy="-103.70322355422233"><title>1635</title></circle><circle r="5" cx="-134.31824709207703" cy="-81.56347534674777"><title>1625</title></circle><circle r="5" cx="-37.43817599104312" cy="148.47919844470195"><title>1504</title></circle><circle r="5" cx="-129.2523233071061" cy="6.575096227433775"><title>1568</title></circle><circle r="5" cx="67.5381100399888" cy="100.26242834299917"><title>1459</title></circle><circle r="5" cx="-91.90099567241512" cy="-51.31459059771007"><title>1579</title></circle><circle r="5" cx="105.63882707338324" cy="24.924713246473132"><title>1617</title></circle><circle r="5" cx="59.95652988655581" cy="-117.92522255263013"><title>1747</title></circle><circle r="5" cx="18.456775587759047" cy="-19.233886960277143"><title>1495</title></circle><circle r="5" cx="-10.698459130702107" cy="89.9434524344721"><title>1665</title></circle><circle r="5" cx="79.7853589068618" cy="123.24759708314105"><title>1593</title></circle><circle r="5" cx="96.38444917855654" cy="-125.57799921689153"><title>1440</title></circle><circle r="5" cx="134.38265491535154" cy="-80.67570090226494"><title>1698</title></circle><circle r="5" cx="-24.363034100330662" cy="-65.20213642749376"><title>1528</title></circle><circle r="5" cx="-70.04689060507977" cy="-35.764199523632854"><title>1711</title></circle><circle r="5" cx="-55.949823081756676" cy="-61.42646491965738"><title>1697</title></circle><circle r="5" cx="-83.65419476081489" cy="-10.654682908799721"><title>1670</title></circle><circle r="5" cx="84.49150854128105" cy="6.712795488535161"><title>1574</title></circle><circle r="5" cx="135.06806293615057" cy="-50.82081426448396"><title>1559</title></circle><circle r="5" cx="-78.96338594672697" cy="112.13218967930332"><title>1761</title></circle><circle r="5" cx="-9.695619459634223" cy="-137.90939207960065"><title>1688</title></circle><circle r="5" cx="-5.505307479526664" cy="10.263571981623905"><title>1443</title></circle><circle r="5" cx="0.6956837405963645" cy="-9.42319439510491"><title>1706</title></circle><circle r="5" cx="-63.965092949642276" cy="76.3582455050747"><title>1550</title></circle><circle r="5" cx="-79.86627264054395" cy="85.61114977146902"><title>1531</title></circle><circle r="5" cx="105.0218387536259" cy="-56.37927065918258"><title>1791</title></circle><circle r="5" cx="18.423745303958675" cy="62.56368478982595"><title>1458</title></circle><circle r="5" cx="25.070514317499384" cy="110.44201656935864"><title>1498</title></circle><circle r="5" cx="104.59353722836453" cy="-83.0220511693183"><title>1555</title></circle><circle r="5" cx="-127.71049649643864" cy="35.13045612003496"><title>1845</title></circle><circle r="5" cx="14.565828802914984" cy="-122.83410753916519"><title>1563</title></circle><circle r="5" cx="-7.881855011626609" cy="147.60030672593751"><title>1592</title></circle><circle r="5" cx="-10.054649245478721" cy="-89.83565909881113"><title>1642</title></circle><circle r="5" cx="9.168140591359375" cy="-53.39067872289098"><title>1493</title></circle><circle r="5" cx="-81.28553956709003" cy="17.402642485886822"><title>1595</title></circle><circle r="5" cx="57.71504716215927" cy="54.78587978695552"><title>1863</title></circle><circle r="5" cx="34.77954595882935" cy="39.308949367229154"><title>1501</title></circle><circle r="5" cx="22.344108762107094" cy="8.43817051944523"><title>1467</title></circle><circle r="5" cx="20.733571836214736" cy="47.49828198850536"><title>1654</title></circle><circle r="5" cx="62.44743242027339" cy="-38.27345686612462"><title>1757</title></circle><circle r="5" cx="-37.561174687491786" cy="-98.73896669163071"><title>1562</title></circle><circle r="5" cx="102.35028953454486" cy="-24.150387339784714"><title>1749</title></circle><circle r="5" cx="-94.46621363494822" cy="-19.842893906591335"><title>1707</title></circle><circle r="5" cx="-66.73282115404419" cy="-14.434910938502622"><title>1764</title></circle><circle r="5" cx="-36.57904832721577" cy="17.03194388705932"><title>1569</title></circle><circle r="5" cx="-24.573568765868462" cy="42.26894596030303"><title>1742</title></circle><circle r="5" cx="-60.47181713981269" cy="33.24665934827182"><title>1712</title></circle><circle r="5" cx="-21.552582529634822" cy="-39.90866683441745"><title>1842</title></circle><circle r="5" cx="-30.107476310208963" cy="-13.55693992053612"><title>1439</title></circle></g></svg>