<svg xmlns="http://www.w3.org/2000/svg" width="16" height="16" viewBox="0 0 16 16">
  <path id="Icon_material-view-comfy" data-name="Icon material-view-comfy" d="M4.5,12.071H7.868V7.5H4.5Zm0,5.714H7.868V13.214H4.5Zm4.211,0h3.368V13.214H8.711Zm4.211,0h3.368V13.214H12.921ZM8.711,12.071h3.368V7.5H8.711ZM12.921,7.5v4.571h3.368V7.5Zm4.211,10.286H20.5V13.214H17.132ZM4.5,23.5H7.868V18.929H4.5Zm4.211,0h3.368V18.929H8.711Zm4.211,0h3.368V18.929H12.921Zm4.211,0H20.5V18.929H17.132Zm0-16v4.571H20.5V7.5Z" transform="translate(-4.5 -7.5)" fill="#44c7f4"/>
</svg>
