<svg xmlns="http://www.w3.org/2000/svg" width="17.664" height="17.664" viewBox="0 0 17.664 17.664">
  <path id="Icon_awesome-info-circle" data-name="Icon awesome-info-circle" d="M9.395.563a8.832,8.832,0,1,0,8.832,8.832A8.833,8.833,0,0,0,9.395.563Zm0,3.917a1.5,1.5,0,1,1-1.5,1.5A1.5,1.5,0,0,1,9.395,4.48Zm1.994,9.046a.427.427,0,0,1-.427.427H7.828a.427.427,0,0,1-.427-.427v-.855a.427.427,0,0,1,.427-.427h.427V9.964H7.828A.427.427,0,0,1,7.4,9.537V8.682a.427.427,0,0,1,.427-.427h2.279a.427.427,0,0,1,.427.427v3.561h.427a.427.427,0,0,1,.427.427Z" transform="translate(-0.563 -0.563)" fill="#FFFFFF"/>
</svg>
