<svg xmlns="http://www.w3.org/2000/svg" width="13.552" height="13.456" viewBox="0 0 13.552 13.456">
  <g id="Group_333" data-name="Group 333" transform="translate(-3229.666 -5972.656)" opacity="1">
    <path id="Path_883" data-name="Path 883" d="M3239.253,5975.814c-.6-.707-.977-.6-1.585.021-1.735,1.777-3.527,3.5-5.334,5.2-.8.751-1.807,1.393.052,2.062.249.09.45.44.577.714.35.757.678.745,1.251.16,1.93-1.967,3.91-3.885,5.866-5.825.222-.22.419-.464.806-.9A14.309,14.309,0,0,1,3239.253,5975.814Z" fill="#828a8e"/>
    <path id="Path_884" data-name="Path 884" d="M3241.289,5972.657a3.883,3.883,0,0,0-1.959,1.7,11.2,11.2,0,0,0,2.241,2.208,4.562,4.562,0,0,0,1.638-1.806C3243.353,5974.378,3241.773,5972.718,3241.289,5972.657Z" fill="#828a8e"/>
    <path id="Path_885" data-name="Path 885" d="M3232.6,5984.329h0a2.788,2.788,0,0,0-1.426-1.149c-.349-.131-.544-.229-.672.249-.227.851-.52,1.685-.835,2.684l2.451-.722c.9-.019,1.106-.353.482-1.062Z" fill="#828a8e"/>
  </g>
</svg>
