<svg xmlns="http://www.w3.org/2000/svg" width="32" height="32" viewBox="0 0 32 32">
  <g id="Group_1949" data-name="Group 1949" transform="translate(-346.639 -347.368)">
    <path id="Path_5515" data-name="Path 5515" d="M362.64,347.368a16,16,0,1,0,10.613,4.027A15.755,15.755,0,0,0,362.64,347.368Zm0,26.087a10.088,10.088,0,1,1,10.087-10.087,10.216,10.216,0,0,1-3.941,8A9.833,9.833,0,0,1,362.64,373.455Z" transform="translate(0 0)" fill="#ffbd6e"/>
    <circle id="Ellipse_587" data-name="Ellipse 587" cx="1.6" cy="1.6" r="1.6" transform="translate(355.166 362.068)" fill="#ffbd6e"/>
    <circle id="Ellipse_588" data-name="Ellipse 588" cx="1.6" cy="1.6" r="1.6" transform="translate(361.039 362.068)" fill="#ffbd6e"/>
    <circle id="Ellipse_589" data-name="Ellipse 589" cx="1.6" cy="1.6" r="1.6" transform="translate(366.913 362.068)" fill="#ffbd6e"/>
  </g>
</svg>
