<svg xmlns="http://www.w3.org/2000/svg" width="12.915" height="13.979" viewBox="0 0 12.915 13.979">
  <g id="Group_1879" data-name="Group 1879" transform="translate(-4112.872 -7205.178)">
    <path id="Path_2375" data-name="Path 2375" d="M4125.368,7216.213a2.745,2.745,0,0,0-2.792,2.767,2.772,2.772,0,1,0,5.544-.015A2.744,2.744,0,0,0,4125.368,7216.213Zm0,4.926a2.156,2.156,0,1,1,2.145-2.138A2.238,2.238,0,0,1,4125.363,7221.139Z" transform="translate(-5.979 -6.799)" fill="#8a8b8b"/>
    <path id="Path_2376" data-name="Path 2376" d="M4125.434,7213.832a2.831,2.831,0,0,1-.02-3.286,2.051,2.051,0,0,0-.83-2.8.738.738,0,0,0-.456-.039,1.814,1.814,0,0,1-1.987-.385.841.841,0,0,0-.31-.163,1.235,1.235,0,0,1-.837-.953c-.268-.893-.473-1.02-1.381-1.026-.215,0-.431.01-.646,0a1.01,1.01,0,0,0-1.159.847,1.536,1.536,0,0,1-1.092,1.233,1.25,1.25,0,0,0-.454.264,1.271,1.271,0,0,1-1.29.267c-.979-.225-1.148-.092-1.868,1.212-.36.652-.323,1,.287,1.61a1.223,1.223,0,0,1,.408,1.144,2.478,2.478,0,0,0,0,.76,1.366,1.366,0,0,1-.394,1.213c-.684.759-.68.985-.15,1.858.091.15.188.3.272.451a.938.938,0,0,0,1.12.547,1.934,1.934,0,0,1,1.946.407,1.406,1.406,0,0,0,.468.239.94.94,0,0,1,.625.7c.359,1.113.525,1.221,1.668,1.222,1.184,0,1.347-.107,1.718-1.24a.921.921,0,0,1,.58-.671,2.07,2.07,0,0,0,.667-.36,1.532,1.532,0,0,1,1.568-.318,1.081,1.081,0,0,0,1.369-.607c.106-.209.214-.417.333-.62A1.2,1.2,0,0,0,4125.434,7213.832Zm-.361,1.191c-.267.351-.314.919-.989.981-.925-.6-1.616.1-2.437.5a2.036,2.036,0,0,0-1.284,1.5c-.094.478-.464.518-.863.483-.42-.036-.972.178-1.106-.464a1.84,1.84,0,0,0-1.394-1.536.786.786,0,0,1-.352-.206,1.483,1.483,0,0,0-1.754-.372c-.672.26-.827-.264-1.1-.662s-.333-.745.054-1.09a1.43,1.43,0,0,0,.564-1.645.633.633,0,0,1,0-.349,2.013,2.013,0,0,0-.7-2.178.461.461,0,0,1-.074-.589c.427-1.018.577-1.123,1.668-.891a1.024,1.024,0,0,0,1.063-.263,1.128,1.128,0,0,1,.384-.265,2.409,2.409,0,0,0,1.722-1.843c.108-.546.729-.276,1.129-.323a.586.586,0,0,1,.715.364,2.565,2.565,0,0,1,.113.333,1.325,1.325,0,0,0,1.039,1.188.84.84,0,0,1,.362.188,2.117,2.117,0,0,0,2.237.509c.587-.2.682.449.926.792.208.292.3.6-.021.887a1.705,1.705,0,0,0-.647,1.905.81.81,0,0,1,0,.465,1.529,1.529,0,0,0,.592,1.748A.566.566,0,0,1,4125.073,7215.023Z" fill="#8a8b8b"/>
    <path id="Path_2377" data-name="Path 2377" d="M4125.368,7216.213a2.745,2.745,0,0,0-2.792,2.767,2.772,2.772,0,1,0,5.544-.015A2.744,2.744,0,0,0,4125.368,7216.213Zm0,4.926a2.156,2.156,0,1,1,2.145-2.138A2.238,2.238,0,0,1,4125.363,7221.139Z" transform="translate(-5.979 -6.799)" fill="#8a8b8b"/>
    <path id="Path_2378" data-name="Path 2378" d="M4125.368,7216.213a2.745,2.745,0,0,0-2.792,2.767,2.772,2.772,0,1,0,5.544-.015A2.744,2.744,0,0,0,4125.368,7216.213Zm0,4.926a2.156,2.156,0,1,1,2.145-2.138A2.238,2.238,0,0,1,4125.363,7221.139Z" transform="translate(-5.979 -6.799)" fill="#8a8b8b"/>
  </g>
</svg>
