<svg width="9" height="8" viewBox="0 0 9 8" fill="none" xmlns="http://www.w3.org/2000/svg">
<path fill-rule="evenodd" clip-rule="evenodd" d="M3.60103 0.866528H5.399C6.14655 0.866528 6.74985 1.44746 6.74985 2.16861V4.76091H7.65012V2.16861C7.65012 0.968968 6.64311 0 5.39899 0H3.60102L3.60103 0.866528ZM5.399 6.93347H3.60103C2.85643 6.93347 2.25018 6.34888 2.25018 5.63347V3.46653H1.34991V5.63347C1.34991 6.82739 2.35903 7.8 3.60104 7.8H5.39901L5.399 6.93347Z" fill="#BFBFBF"/>
<path fill-rule="evenodd" clip-rule="evenodd" d="M2.1181 2.72678C1.94261 2.55778 1.65742 2.55778 1.48193 2.72678L0.13194 4.02678C-0.0439799 4.19619 -0.0439799 4.4704 0.13194 4.63981C0.307438 4.80881 0.59262 4.80881 0.768118 4.63981L1.80001 3.6835L2.83191 4.63981C3.00741 4.80881 3.29259 4.80881 3.46809 4.63981C3.64401 4.4704 3.64401 4.19619 3.46809 4.02678L2.1181 2.72678Z" fill="#BFBFBF"/>
<path fill-rule="evenodd" clip-rule="evenodd" d="M7.19999 4.11653L6.16809 3.16022C5.99259 2.99122 5.70741 2.99122 5.53191 3.16022C5.35599 3.32962 5.35599 3.60384 5.53191 3.77325L6.8819 5.07325C7.05739 5.24225 7.34258 5.24225 7.51807 5.07325L8.86806 3.77325C9.04398 3.60384 9.04398 3.32962 8.86806 3.16022C8.69256 2.99122 8.40738 2.99122 8.23188 3.16022L7.19999 4.11653Z" fill="#BFBFBF"/>
</svg>